<?xml version="1.0" encoding="UTF-8" standalone="no"?>
<svg width="800" height="500" viewBox="0 0 800 500" xmlns="http://www.w3.org/2000/svg">
  <rect width="800" height="500" fill="#1B1C25" />
  <rect x="20" y="20" width="760" height="60" rx="8" fill="#072730" />
  <rect x="40" y="40" width="120" height="20" rx="4" fill="#0EADAB" />
  <rect x="600" y="40" width="60" height="20" rx="4" fill="#0EADAB" opacity="0.7" />
  <rect x="680" y="40" width="60" height="20" rx="4" fill="#0EADAB" opacity="0.7" />
  
  <!-- Left sidebar -->
  <rect x="20" y="100" width="200" height="380" rx="8" fill="#072730" />
  <rect x="40" y="120" width="160" height="20" rx="4" fill="#0EADAB" opacity="0.7" />
  <rect x="40" y="160" width="160" height="20" rx="4" fill="#0EADAB" opacity="0.3" />
  <rect x="40" y="200" width="160" height="20" rx="4" fill="#0EADAB" opacity="0.3" />
  <rect x="40" y="240" width="160" height="20" rx="4" fill="#0EADAB" opacity="0.3" />
  
  <!-- Main content area -->
  <rect x="240" y="100" width="540" height="180" rx="8" fill="#072730" />
  <rect x="260" y="120" width="200" height="30" rx="4" fill="#0EADAB" opacity="0.9" />
  <rect x="260" y="160" width="500" height="100" rx="4" fill="#0EADAB" opacity="0.2" />
  
  <!-- Charts -->
  <rect x="240" y="300" width="260" height="180" rx="8" fill="#072730" />
  <rect x="260" y="320" width="120" height="20" rx="4" fill="#0EADAB" opacity="0.7" />
  
  <!-- Line chart -->
  <polyline points="260,420 290,400 320,430 350,380 380,410 410,370 440,390 470,360" 
            stroke="#0EADAB" stroke-width="3" fill="none" />
  
  <!-- Bar chart -->
  <rect x="520" y="300" width="260" height="180" rx="8" fill="#072730" />
  <rect x="540" y="320" width="120" height="20" rx="4" fill="#0EADAB" opacity="0.7" />
  <rect x="550" y="430" width="20" height="30" fill="#0EADAB" opacity="0.5" />
  <rect x="580" y="410" width="20" height="50" fill="#0EADAB" opacity="0.6" />
  <rect x="610" y="390" width="20" height="70" fill="#0EADAB" opacity="0.7" />
  <rect x="640" y="370" width="20" height="90" fill="#0EADAB" opacity="0.8" />
  <rect x="670" y="350" width="20" height="110" fill="#0EADAB" opacity="0.9" />
  <rect x="700" y="380" width="20" height="80" fill="#0EADAB" opacity="0.7" />
  <rect x="730" y="400" width="20" height="60" fill="#0EADAB" opacity="0.5" />
</svg>
